<svg xmlns="http://www.w3.org/2000/svg" viewBox="0 0 120.27 120.27"><title>icon</title><circle cx="60.13" cy="60.13" r="60.13" style="fill:#3fa9f5"/><path d="M84.34,92.28H47.53a2.26,2.26,0,0,1,0-4.52H79.81V30a2.27,2.27,0,0,1,4.53,0Z" style="fill:#fff"/><path d="M52.32,92.28H35.86V27.78H82.07a2.26,2.26,0,1,1,0,4.52H40.39V87.76H52.32a2.26,2.26,0,1,1,0,4.52Z" style="fill:#fff"/><rect x="46.51" y="48.84" width="4.61" height="4.52" style="fill:#fff"/><rect x="69.08" y="48.84" width="4.61" height="4.52" style="fill:#fff"/><rect x="57.79" y="48.84" width="4.61" height="4.52" style="fill:#fff"/><rect x="46.51" y="37.5" width="4.61" height="4.52" style="fill:#fff"/><rect x="69.08" y="37.5" width="4.61" height="4.52" style="fill:#fff"/><rect x="57.79" y="37.5" width="4.61" height="4.52" style="fill:#fff"/><rect x="46.51" y="60.67" width="4.61" height="4.52" style="fill:#fff"/><rect x="69.08" y="60.67" width="4.61" height="4.52" style="fill:#fff"/><rect x="57.79" y="60.67" width="4.61" height="4.52" style="fill:#fff"/><rect x="46.51" y="71.99" width="4.61" height="4.52" style="fill:#fff"/><rect x="69.08" y="71.99" width="4.61" height="4.52" style="fill:#fff"/><rect x="57.79" y="71.99" width="4.61" height="4.52" style="fill:#fff"/></svg>