<?xml version="1.0" encoding="utf-8"?>
<!-- Generator: Adobe Illustrator 23.0.6, SVG Export Plug-In . SVG Version: 6.00 Build 0)  -->
<svg version="1.1" id="Layer_1" xmlns="http://www.w3.org/2000/svg" xmlns:xlink="http://www.w3.org/1999/xlink" x="0px" y="0px"
	 width="120.3px" height="120.3px" viewBox="0 0 120.3 120.3" style="enable-background:new 0 0 120.3 120.3;" xml:space="preserve"
	>
<style type="text/css">
	.st0{fill:#FFFFFF;}
</style>
<title>Untitled-4</title>
<path class="st0" d="M84.4,92.4H47.6c-1.2,0-2.3-1-2.3-2.3c0-1.2,1-2.3,2.3-2.3c0,0,0,0,0,0h32.3V30.1c0.1-1.3,1.2-2.2,2.4-2.1
	c1.1,0.1,2,1,2.1,2.1L84.4,92.4z"/>
<path class="st0" d="M52.3,92.4H35.9V27.9h46.2c1.2,0,2.3,1,2.3,2.3s-1,2.3-2.3,2.3l0,0H40.4v55.5h11.9c1.2,0,2.3,1,2.3,2.3
	C54.6,91.4,53.6,92.4,52.3,92.4C52.4,92.4,52.4,92.4,52.3,92.4z"/>
<rect x="46.5" y="48.9" class="st0" width="4.6" height="4.5"/>
<rect x="69.1" y="48.9" class="st0" width="4.6" height="4.5"/>
<rect x="57.8" y="48.9" class="st0" width="4.6" height="4.5"/>
<rect x="46.5" y="37.6" class="st0" width="4.6" height="4.5"/>
<rect x="69.1" y="37.6" class="st0" width="4.6" height="4.5"/>
<rect x="57.8" y="37.6" class="st0" width="4.6" height="4.5"/>
<rect x="46.5" y="60.8" class="st0" width="4.6" height="4.5"/>
<rect x="69.1" y="60.8" class="st0" width="4.6" height="4.5"/>
<rect x="57.8" y="60.8" class="st0" width="4.6" height="4.5"/>
<rect x="46.5" y="72.1" class="st0" width="4.6" height="4.5"/>
<rect x="69.1" y="72.1" class="st0" width="4.6" height="4.5"/>
<rect x="57.8" y="72.1" class="st0" width="4.6" height="4.5"/>
</svg>
