<svg xmlns="http://www.w3.org/2000/svg" viewBox="0 0 120.27 120.27"><title>icon</title><circle cx="60.13" cy="60.13" r="60.13" style="fill:#3fa9f5"/><path d="M91.48,51.48H29.24L60.36,32ZM45,47H75.71L60.36,37.37Z" style="fill:#fff"/><path d="M39.39,79.92a2.26,2.26,0,0,1-2.26-2.26V57.26a2.26,2.26,0,1,1,4.52,0v20.4A2.26,2.26,0,0,1,39.39,79.92Z" style="fill:#fff"/><path d="M60.21,79.92A2.26,2.26,0,0,1,58,77.66V57.26a2.26,2.26,0,0,1,4.52,0v20.4A2.26,2.26,0,0,1,60.21,79.92Z" style="fill:#fff"/><path d="M81,79.92a2.26,2.26,0,0,1-2.26-2.26V57.26a2.26,2.26,0,0,1,4.52,0v20.4A2.26,2.26,0,0,1,81,79.92Z" style="fill:#fff"/><rect x="32.01" y="83.44" width="56.64" height="4.52" style="fill:#fff"/></svg>