<svg xmlns="http://www.w3.org/2000/svg" viewBox="0 0 120.27 120.27"><title>Untitled-4</title><circle cx="60" cy="60" r="60" style="fill:#114181"/><path d="M91.15,63.89a2.26,2.26,0,0,1-1.6-.66L60.13,33.82,30.72,63.23a2.26,2.26,0,0,1-3.2-3.2L60.13,27.42,92.74,60a2.26,2.26,0,0,1-1.59,3.86Z" style="fill:#fff"/><path d="M84.37,92.85H35.9V53.2a2.27,2.27,0,0,1,4.53,0V88.33H79.84V53.2a2.27,2.27,0,0,1,4.53,0Z" style="fill:#fff"/><path d="M62.4,92.85H44.65V75H62.4ZM49.17,88.33h8.7V79.56h-8.7Z" style="fill:#fff"/><path d="M75.62,92.85H57.87V75H75.62ZM62.4,88.33h8.69V79.56H62.4Z" style="fill:#fff"/><path d="M69,79.55H51.26V61.74H69ZM55.78,75h8.7V66.26h-8.7Z" style="fill:#fff"/></svg>