<?xml version="1.0" encoding="utf-8"?>
<!-- Generator: Adobe Illustrator 23.0.6, SVG Export Plug-In . SVG Version: 6.00 Build 0)  -->
<svg version="1.1" id="Layer_1" xmlns="http://www.w3.org/2000/svg" xmlns:xlink="http://www.w3.org/1999/xlink" x="0px" y="0px"
	 width="120.3px" height="120.3px" viewBox="0 0 120.3 120.3" style="enable-background:new 0 0 120.3 120.3;" xml:space="preserve"
	>
<style type="text/css">
	.st0{fill:#e30613;}
</style>
<title>Untitled-4</title>
<path class="st0" d="M91.2,63.9c-0.6,0-1.2-0.2-1.6-0.7L60.1,33.8L30.7,63.2c-0.9,0.9-2.3,0.9-3.2,0s-0.9-2.3,0-3.2l32.6-32.6
	L92.7,60c0.9,0.9,0.9,2.3,0,3.2C92.3,63.6,91.7,63.9,91.2,63.9L91.2,63.9z"/>
<path class="st0" d="M84.4,92.8H35.9V53.2c0.1-1.3,1.2-2.2,2.4-2.1c1.1,0.1,2,1,2.1,2.1v35.1h39.4V53.2c0.1-1.3,1.2-2.2,2.4-2.1
	c1.1,0.1,2,1,2.1,2.1L84.4,92.8z"/>
<path class="st0" d="M62.4,92.8H44.7V75h17.8V92.8z M49.2,88.3h8.7v-8.8h-8.7V88.3z"/>
<path class="st0" d="M75.6,92.8H57.9V75h17.8V92.8z M62.4,88.3h8.7v-8.8h-8.7V88.3z"/>
<path class="st0" d="M69,79.6H51.3V61.7H69V79.6z M55.8,75h8.7v-8.7h-8.7L55.8,75z"/>
</svg>
