<svg xmlns="http://www.w3.org/2000/svg" viewBox="0 0 120.27 120.27"><title>Untitled-4</title><circle cx="60.61" cy="60.61" r="60" style="fill:#114181"/><path d="M84.37,92.38H47.57a2.26,2.26,0,1,1,0-4.52H79.84V30.15a2.27,2.27,0,0,1,4.53,0Z" style="fill:#fff"/><path d="M52.35,92.38H35.9V27.89H82.1a2.26,2.26,0,1,1,0,4.52H40.43V87.86H52.35a2.26,2.26,0,1,1,0,4.52Z" style="fill:#fff"/><rect x="46.54" y="48.94" width="4.61" height="4.52" style="fill:#fff"/><rect x="69.12" y="48.94" width="4.61" height="4.52" style="fill:#fff"/><rect x="57.83" y="48.94" width="4.61" height="4.52" style="fill:#fff"/><rect x="46.54" y="37.61" width="4.61" height="4.52" style="fill:#fff"/><rect x="69.12" y="37.61" width="4.61" height="4.52" style="fill:#fff"/><rect x="57.83" y="37.61" width="4.61" height="4.52" style="fill:#fff"/><rect x="46.54" y="60.77" width="4.61" height="4.52" style="fill:#fff"/><rect x="69.12" y="60.77" width="4.61" height="4.52" style="fill:#fff"/><rect x="57.83" y="60.77" width="4.61" height="4.52" style="fill:#fff"/><rect x="46.54" y="72.09" width="4.61" height="4.52" style="fill:#fff"/><rect x="69.12" y="72.09" width="4.61" height="4.52" style="fill:#fff"/><rect x="57.83" y="72.09" width="4.61" height="4.52" style="fill:#fff"/></svg>