<svg xmlns="http://www.w3.org/2000/svg" viewBox="0 0 120.27 120.27"><title>Untitled-4</title><circle cx="60.14" cy="60.13" r="60" style="fill:#114181"/><path d="M49.89,91.88H29.39a2.27,2.27,0,0,1-2.26-2.27V74.13a2.26,2.26,0,0,1,2.26-2.26h20.5a2.26,2.26,0,0,1,2.26,2.26V89.61A2.27,2.27,0,0,1,49.89,91.88ZM31.65,87.35h16v-11h-16Z" style="fill:#fff"/><path d="M70.38,91.9H49.89a2.27,2.27,0,0,1-2.27-2.26v-31a2.27,2.27,0,0,1,2.27-2.26H70.38a2.26,2.26,0,0,1,2.26,2.26v31A2.26,2.26,0,0,1,70.38,91.9ZM52.15,87.37h16V60.89h-16Z" style="fill:#fff"/><path d="M90.88,91.9H70.38a2.26,2.26,0,0,1-2.26-2.26V74.13a2.26,2.26,0,0,1,2.26-2.26h20.5a2.26,2.26,0,0,1,2.26,2.26V89.64A2.26,2.26,0,0,1,90.88,91.9ZM72.64,87.37h16v-11h-16Z" style="fill:#fff"/><path d="M90.88,76.39H70.38a2.26,2.26,0,0,1-2.26-2.26V58.62a2.26,2.26,0,0,1,2.26-2.26h20.5a2.26,2.26,0,0,1,2.26,2.26V74.13A2.26,2.26,0,0,1,90.88,76.39ZM72.64,71.87h16v-11h-16Z" style="fill:#fff"/><rect x="27.13" y="87.35" width="66.01" height="4.52" style="fill:#fff"/><path d="M93.14,60.94h-25V42.85a4.79,4.79,0,0,1,1.41-3.41L80.66,28.37,91.73,39.44a4.79,4.79,0,0,1,1.41,3.41ZM72.71,56.42H88.62V42.85a.31.31,0,0,0-.09-.22l-7.87-7.86L72.8,42.63a.31.31,0,0,0-.09.22Z" style="fill:#fff"/></svg>