<?xml version="1.0" encoding="utf-8"?>
<!-- Generator: Adobe Illustrator 23.0.6, SVG Export Plug-In . SVG Version: 6.00 Build 0)  -->
<svg version="1.1" id="Layer_1" xmlns="http://www.w3.org/2000/svg" xmlns:xlink="http://www.w3.org/1999/xlink" x="0px" y="0px"
	 width="120.3px" height="120.3px" viewBox="0 0 120.3 120.3" style="enable-background:new 0 0 120.3 120.3;" xml:space="preserve"
	>
<style type="text/css">
	.st0{fill:#e30613;}
</style>
<title>Untitled-4</title>
<path class="st0" d="M49.9,91.9H29.4c-1.2,0-2.3-1-2.3-2.3V74.1c0-1.2,1-2.3,2.3-2.3h0h20.5c1.2,0,2.3,1,2.3,2.3l0,0v15.5
	C52.2,90.9,51.1,91.9,49.9,91.9z M31.6,87.3h16v-11h-16L31.6,87.3z"/>
<path class="st0" d="M70.4,91.9H49.9c-1.2,0-2.3-1-2.3-2.3v-31c0-1.2,1-2.3,2.3-2.3h20.5c1.2,0,2.3,1,2.3,2.3l0,0v31
	C72.6,90.9,71.6,91.9,70.4,91.9C70.4,91.9,70.4,91.9,70.4,91.9z M52.2,87.4h16V60.9h-16V87.4z"/>
<path class="st0" d="M90.9,91.9H70.4c-1.2,0-2.3-1-2.3-2.3c0,0,0,0,0,0V74.1c0-1.2,1-2.3,2.3-2.3c0,0,0,0,0,0h20.5
	c1.2,0,2.3,1,2.3,2.3c0,0,0,0,0,0v15.5C93.1,90.9,92.1,91.9,90.9,91.9C90.9,91.9,90.9,91.9,90.9,91.9z M72.6,87.4h16v-11h-16V87.4z"
	/>
<path class="st0" d="M90.9,76.4H70.4c-1.2,0-2.3-1-2.3-2.3c0,0,0,0,0,0V58.6c0-1.2,1-2.3,2.3-2.3l0,0h20.5c1.2,0,2.3,1,2.3,2.3l0,0
	v15.5C93.1,75.4,92.1,76.4,90.9,76.4C90.9,76.4,90.9,76.4,90.9,76.4z M72.6,71.9h16v-11h-16V71.9z"/>
<rect x="27.1" y="87.3" class="st0" width="66" height="4.5"/>
<path class="st0" d="M93.1,60.9h-25V42.8c0-1.3,0.5-2.5,1.4-3.4l11.1-11.1l11.1,11.1c0.9,0.9,1.4,2.1,1.4,3.4L93.1,60.9z M72.7,56.4
	h15.9V42.8c0-0.1,0-0.2-0.1-0.2l-7.9-7.9l-7.9,7.9c-0.1,0.1-0.1,0.1-0.1,0.2L72.7,56.4z"/>
</svg>
