<?xml version="1.0" encoding="utf-8"?>
<!-- Generator: Adobe Illustrator 23.0.6, SVG Export Plug-In . SVG Version: 6.00 Build 0)  -->
<svg version="1.1" id="Layer_1" xmlns="http://www.w3.org/2000/svg" xmlns:xlink="http://www.w3.org/1999/xlink" x="0px" y="0px"
	 width="120.3px" height="120.3px" viewBox="0 0 120.3 120.3" style="enable-background:new 0 0 120.3 120.3;" xml:space="preserve"
	>
<style type="text/css">
	.st0{fill:#FFFFFF;}
</style>
<title>Untitled-4</title>
<path class="st0" d="M88.2,90.2H32.1l5.4-45.8h45.4L88.2,90.2z M37.2,85.7h46l-4.4-36.8H41.5L37.2,85.7z"/>
<path class="st0" d="M69.4,46.6c-1.2,0-2.3-1-2.3-2.3l0,0v-9.8H53.2v9.8c0,1.2-1,2.3-2.3,2.3c-1.2,0-2.3-1-2.3-2.3v-12
	c0-1.2,1-2.3,2.3-2.3h18.5c1.2,0,2.3,1,2.3,2.3c0,0,0,0,0,0v12C71.6,45.6,70.6,46.6,69.4,46.6C69.4,46.6,69.4,46.6,69.4,46.6z"/>
</svg>
